<svg width="29" height="27" viewBox="0 0 29 27" fill="none" xmlns="http://www.w3.org/2000/svg">
<mask id="mask0_4_7" style="mask-type:luminance" maskUnits="userSpaceOnUse" x="0" y="0" width="29" height="27">
<path d="M0.695396 0.417343H28.2894V26.6973H0.695396V0.417343Z" fill="white"/>
</mask>
<g mask="url(#mask0_4_7)">
<path d="M27.8271 9.20471C26.3336 3.70462 21.8144 0.42038 15.7395 0.42038H0.695396L0.991959 1.10095C2.26718 4.02323 5.1522 5.91287 8.34139 5.91363H12.4378L12.4712 5.91287C12.6271 5.90146 13.202 5.86648 14.065 5.86648C14.8947 5.86648 15.741 5.89918 16.5752 5.96306L16.6573 5.9699C19.8533 6.22084 24.2326 7.05654 26.9381 9.60393L26.9731 9.63663C26.9868 9.65032 27.0013 9.66248 27.0149 9.67693L28.3023 10.959L27.8271 9.20471ZM28.2392 15.5435L28.2354 15.5968C27.4233 22.4497 22.5832 26.7065 15.6056 26.7065H6.00767V13.7322H6.49357C9.30331 13.7322 11.5891 16.018 11.5891 18.8278V21.125H15.8399C17.9333 21.125 19.6959 20.4376 20.9384 19.1365C22.203 17.8126 22.8707 15.8994 22.8707 13.603V13.5246C22.8707 11.7468 22.4798 10.2138 21.7088 8.96746L20.9886 7.80403L22.2813 8.25267C23.8843 8.8093 25.1854 9.54994 26.1465 10.4564C27.5518 11.7795 28.2559 13.4912 28.2392 15.5435Z" fill="black"/>
</g>
</svg>
