<svg width="56" height="43" viewBox="0 0 56 43" fill="none" xmlns="http://www.w3.org/2000/svg">
<mask id="mask0_13_2" style="mask-type:luminance" maskUnits="userSpaceOnUse" x="13" y="3" width="29" height="27">
<path d="M13.6954 3.41734H41.2894V29.6973H13.6954V3.41734Z" fill="white"/>
</mask>
<g mask="url(#mask0_13_2)">
<path d="M40.8271 12.2047C39.3336 6.70463 34.8144 3.42039 28.7395 3.42039H13.6954L13.992 4.10096C15.2672 7.02324 18.1522 8.91288 21.3414 8.91364H25.4378L25.4712 8.91288C25.6271 8.90147 26.202 8.86649 27.065 8.86649C27.8947 8.86649 28.741 8.89919 29.5752 8.96306L29.6573 8.96991C32.8533 9.22085 37.2326 10.0565 39.9381 12.6039L39.9731 12.6366C39.9868 12.6503 40.0013 12.6625 40.0149 12.6769L41.3023 13.959L40.8271 12.2047ZM41.2392 18.5436L41.2354 18.5968C40.4233 25.4497 35.5832 29.7065 28.6056 29.7065H19.0077V16.7322H19.4936C22.3033 16.7322 24.5891 19.0181 24.5891 21.8278V24.125H28.8399C30.9333 24.125 32.6959 23.4376 33.9384 22.1365C35.203 20.8126 35.8707 18.8994 35.8707 16.603V16.5246C35.8707 14.7468 35.4798 13.2138 34.7088 11.9675L33.9886 10.804L35.2813 11.2527C36.8843 11.8093 38.1854 12.5499 39.1465 13.4564C40.5518 14.7795 41.2559 16.4912 41.2392 18.5436Z" fill="white"/>
</g>
<path d="M1.65681 41.7285V37.1538H3.26889C4.18291 37.1538 4.87261 37.347 5.33722 37.7317C5.80336 38.115 6.03681 38.683 6.03681 39.4351C6.03681 39.7659 5.97673 40.0708 5.85735 40.3506C5.7372 40.6289 5.56839 40.8707 5.34939 41.0776C5.13039 41.2844 4.87033 41.4449 4.57072 41.5582C4.27264 41.6722 3.94794 41.7285 3.59739 41.7285H1.65681ZM2.94647 40.5939H3.50614C3.91372 40.5939 4.22169 40.4981 4.43081 40.305C4.63916 40.1126 4.7441 39.8335 4.7441 39.4685C4.7441 39.0594 4.6346 38.7598 4.4156 38.5712C4.1966 38.3827 3.85441 38.2884 3.39056 38.2884H2.94647V40.5939Z" fill="white"/>
<path d="M7.11773 41.7285L9.13435 37.1538H10.205L12.1517 41.7285H10.8499L10.5274 40.9103H8.75414L8.41956 41.7285H7.11773ZM9.19214 39.8487H10.1016L9.65752 38.7264L9.19214 39.8487Z" fill="white"/>
<path d="M16.6452 38.2549H14.7381V38.9393H16.4779V40.0404H14.7381V41.7285H13.4697V37.1538H16.6452V38.2549Z" fill="white"/>
<path d="M18.1846 41.7285V37.1538H19.4743V41.7285H18.1846Z" fill="white"/>
<path d="M27.2088 37.1538H28.4711L28.4863 39.6602C28.4901 40.0822 28.4042 40.454 28.2278 40.7764C28.0514 41.0973 27.8035 41.3475 27.4856 41.5277C27.1693 41.7087 26.7997 41.7984 26.3785 41.7984C25.691 41.7984 25.1618 41.6274 24.7907 41.2844C24.4196 40.9399 24.2341 40.4312 24.2341 39.7575V37.1538H25.5207V39.6936C25.5207 40.0404 25.6006 40.2898 25.761 40.4419C25.923 40.5924 26.1306 40.6669 26.3845 40.6669C26.6499 40.6669 26.8568 40.5863 27.005 40.4236C27.1548 40.2594 27.2271 39.9902 27.221 39.6145L27.2088 37.1538Z" fill="white"/>
<path d="M34.1535 37.1538L33.965 38.2762H32.6266V41.7285H31.337V38.2762H29.9074V37.1538H34.1535Z" fill="white"/>
<path d="M37.6577 41.7924C37.1626 41.7962 36.7368 41.7087 36.3802 41.5277C36.0251 41.3475 35.7521 41.0882 35.562 40.7491C35.3734 40.4107 35.2791 40.0031 35.2791 39.5263C35.2791 39.0359 35.3825 38.6077 35.5893 38.2427C35.7962 37.8777 36.0836 37.5949 36.4532 37.3941C36.822 37.1918 37.2531 37.09 37.7459 37.09C38.1976 37.09 38.5922 37.1842 38.9291 37.3728C39.2652 37.5614 39.5268 37.8253 39.7138 38.1637C39.9024 38.5005 39.9967 38.8959 39.9967 39.3499C39.9967 39.8328 39.8979 40.2563 39.7017 40.6213C39.507 40.9863 39.2332 41.2722 38.8804 41.4791C38.5276 41.6844 38.12 41.7878 37.6577 41.7924ZM37.6242 40.667C37.9542 40.667 38.2158 40.5506 38.409 40.3172C38.6036 40.0822 38.701 39.7689 38.701 39.3773C38.701 39.0245 38.6097 38.7439 38.4272 38.5347C38.2447 38.3241 37.9999 38.2184 37.6942 38.2184C37.4706 38.2184 37.2752 38.2732 37.1071 38.3827C36.9406 38.4922 36.8106 38.6427 36.7178 38.8328C36.6265 39.0237 36.5809 39.2435 36.5809 39.4929C36.5809 39.8624 36.6729 40.1499 36.8577 40.3567C37.0417 40.5635 37.2972 40.667 37.6242 40.667Z" fill="white"/>
<path d="M41.7262 41.7285L41.8631 37.1538H42.9125L44.4455 40.1377L45.9541 37.1538H47.0035L47.1008 41.7285H45.8568L45.8173 39.8153L44.8378 41.7285H43.9375L42.9642 39.8487L42.9064 41.7285H41.7262Z" fill="white"/>
<path d="M51.216 41.7924C50.721 41.7962 50.2951 41.7087 49.9385 41.5277C49.5834 41.3475 49.3104 41.0882 49.1203 40.7491C48.9317 40.4107 48.8374 40.0031 48.8374 39.5263C48.8374 39.0359 48.9408 38.6077 49.1477 38.2427C49.3545 37.8777 49.6419 37.5949 50.0115 37.3941C50.3803 37.1918 50.8115 37.09 51.3042 37.09C51.7559 37.09 52.1506 37.1842 52.4874 37.3728C52.8235 37.5614 53.0851 37.8253 53.2722 38.1637C53.4608 38.5005 53.5551 38.8959 53.5551 39.3499C53.5551 39.8328 53.4562 40.2563 53.26 40.6213C53.0653 40.9863 52.7916 41.2722 52.4388 41.4791C52.0859 41.6844 51.6783 41.7878 51.216 41.7924ZM51.1826 40.667C51.5126 40.667 51.7742 40.5506 51.9673 40.3172C52.162 40.0822 52.2593 39.7689 52.2593 39.3773C52.2593 39.0245 52.1681 38.7439 51.9856 38.5347C51.8031 38.3241 51.5582 38.2184 51.2525 38.2184C51.0289 38.2184 50.8335 38.2732 50.6655 38.3827C50.4989 38.4922 50.3689 38.6427 50.2761 38.8328C50.1849 39.0237 50.1393 39.2435 50.1393 39.4929C50.1393 39.8624 50.2313 40.1499 50.4161 40.3567C50.6001 40.5635 50.8556 40.667 51.1826 40.667Z" fill="white"/>
</svg>
